# xmcd
#
# Track frame offsets: 
#        150
#        17414
#        32405
#        53514
#        73943
#        90003
#        107130
#        123167
#        138806
#        153014
#        169688
#        185790
#        200848
#        216362
#
# Disc length: 3092 seconds
#
# Revision: 0
# Processed by: cddbd v1.5.2PL0 Copyright (c) Steve Scherf et al.
# Submitted via: ExactAudioCopy v0.99pb3
#
DISCID=b20c120e
DTITLE=Siggi Schwarz and the Legends - Soul classics
DYEAR=2007
DGENRE=Soul
TTITLE0=Sweet soul music
TTITLE1=Hold on i´m coming
TTITLE2=I heard it through the grapevine
TTITLE3=Mustang Sally
TTITLE4=That´s how strong my love is
TTITLE5=I thank you
TTITLE6=Knock on wood
TTITLE7=Land of 1000 dances
TTITLE8=Love man
TTITLE9=Midnight hour
TTITLE10=Soulman
TTITLE11=Fa fa fa
TTITLE12=Roadrunner
TTITLE13=How sweet it is to be loved by you
EXTD=
EXTT0=
EXTT1=
EXTT2=
EXTT3=
EXTT4=
EXTT5=
EXTT6=
EXTT7=
EXTT8=
EXTT9=
EXTT10=
EXTT11=
EXTT12=
EXTT13=
PLAYORDER=
